<?xml version="1.0" standalone="no"?>
<!DOCTYPE svg PUBLIC "-//W3C//DTD SVG 1.1//EN" "http://www.w3.org/Graphics/SVG/1.1/DTD/svg11.dtd">
<svg xmlns="http://www.w3.org/2000/svg" xmlns:xlink="http://www.w3.org/1999/xlink" width="100%" height="100%" viewBox="0 0 32 32" version="1.1" xml:space="preserve" style="fill-rule:evenodd;clip-rule:evenodd;stroke-linejoin:round;stroke-miterlimit:1.41421;">
  <path id="Icon" d="M21.659,18.505l5.678,8.508l-5.759,3.843l-5.678,-8.508l5.759,-3.843ZM10.379,28.434l-1.088,-1.629l-1.628,1.087l1.087,1.629l1.629,-1.087ZM14.405,23.345l1.908,2.859l-4.384,2.925l-1.908,-2.858l4.384,-2.926ZM5.237,27.984l-4.192,-6.283l25.718,-17.162l4.192,6.283l-25.718,17.162ZM26.127,15.523l1.907,2.859l-2.829,1.888l-1.908,-2.858l2.83,-1.889ZM8.482,14.469l-4.384,2.925l-2.916,-4.37l4.383,-2.925l2.917,4.37ZM15.736,9.628l-5.76,3.844l-5.662,-8.485l5.759,-3.843l5.663,8.484ZM4.508,8.905l-1.087,-1.628l-1.629,1.087l1.087,1.629l1.629,-1.088ZM17.373,8.535l-2.916,-4.37l2.83,-1.888l2.916,4.37l-2.83,1.888Z" style="fill:#000;"/>
</svg>
